<svg width="361" height="54" viewBox="0 0 361 54" fill="none" xmlns="http://www.w3.org/2000/svg">
<g clip-path="url(#clip0_33_225)">
<path d="M179.203 47.2326C179.203 50.0151 176.93 52.3074 174.082 52.3074H6.32398C3.47609 52.3074 1.20312 50.0284 1.20312 47.2326V6.75388C1.20312 3.98463 3.47609 1.69238 6.31061 1.69238H174.082C176.917 1.69238 179.203 3.94488 179.203 6.75388V47.2326Z" fill="black"/>
<path d="M40.2849 26.7087C40.2448 22.4422 43.8146 20.3487 43.9751 20.2692C41.9428 17.3542 38.8141 16.9567 37.691 16.9169C35.0838 16.6254 32.5301 18.4672 31.193 18.4672C29.8159 18.4672 27.7568 16.9302 25.5373 16.9832C22.6895 17.0229 20.0154 18.6659 18.5446 21.2232C15.5096 26.3907 17.7692 34.0492 20.6839 38.2494C22.1279 40.3032 23.8259 42.6219 26.0321 42.5292C28.2114 42.4364 29.027 41.1512 31.6476 41.1512C34.2415 41.1512 34.9902 42.5159 37.2632 42.4762C39.603 42.4232 41.0737 40.396 42.4776 38.3157C44.1489 35.9572 44.8308 33.6384 44.8575 33.5192C44.8041 33.4927 40.3116 31.7967 40.2849 26.6822V26.7087ZM36.0063 14.1477C37.1696 12.6902 37.9718 10.7424 37.7445 8.7417C36.0598 8.80795 33.9473 9.89445 32.7306 11.3122C31.661 12.5577 30.6849 14.6247 30.939 16.5327C32.8376 16.6652 34.7896 15.5787 36.0197 14.1477H36.0063ZM71.7186 42.2377H68.6835L67.0256 37.0702H61.2362L59.6585 42.2377H56.7171L62.4262 24.6152H65.956L71.7052 42.2377H71.7186ZM66.5042 34.8839L65.0334 30.2862C64.8596 29.8092 64.5655 28.6962 64.1242 26.9737H64.0708C63.8969 27.7157 63.6162 28.8287 63.2284 30.2862L61.7309 34.8839H66.5175H66.5042ZM86.4528 35.7452C86.4528 37.8917 85.8645 39.5877 84.6879 40.8597C83.6182 41.9727 82.3213 42.5292 80.757 42.5292C79.0589 42.5292 77.8556 41.9329 77.1069 40.7272H77.0534V47.4184H74.2055V33.7312C74.2055 32.3664 74.1654 30.9752 74.0985 29.5442H76.6122L76.7726 31.5714H76.8261C77.762 30.0477 79.2328 29.2924 81.1447 29.2924C82.6556 29.2924 83.9124 29.9019 84.9285 31.0812C85.9313 32.2737 86.4394 33.8372 86.4394 35.7717L86.4528 35.7452ZM83.5514 35.8379C83.5514 34.5924 83.2572 33.5854 82.6957 32.7904C82.0806 31.9292 81.2517 31.5184 80.2088 31.5184C79.5135 31.5184 78.8718 31.757 78.2968 32.2207C77.7219 32.6845 77.3609 33.2807 77.1737 34.0359C77.0935 34.3937 77.04 34.6719 77.04 34.8972V37.0172C77.04 37.9447 77.3342 38.7397 77.9091 39.3624C78.4706 39.9984 79.2194 40.3164 80.1286 40.3164C81.1982 40.3164 82.0405 39.9189 82.6422 39.0974C83.2439 38.2759 83.538 37.1894 83.538 35.8512L83.5514 35.8379ZM101.214 35.7452C101.214 37.8917 100.625 39.5877 99.4354 40.8597C98.3925 41.9727 97.0688 42.5292 95.5045 42.5292C93.8198 42.5292 92.6031 41.9329 91.8678 40.7272H91.8277V47.4184H88.9798V33.7312C88.9798 32.3664 88.9397 30.9752 88.8728 29.5442H91.3731L91.5335 31.5714H91.587C92.5229 30.0477 93.9669 29.2924 95.9056 29.2924C97.4165 29.2924 98.6866 29.9019 99.6894 31.0812C100.706 32.2737 101.214 33.8372 101.214 35.7717V35.7452ZM98.3123 35.8379C98.3123 34.5924 98.0449 33.5854 97.4566 32.7904C96.8282 31.9292 96.0126 31.5184 94.9697 31.5184C94.2611 31.5184 93.6326 31.757 93.0577 32.2207C92.4962 32.6845 92.1218 33.2807 91.948 34.0359C91.8544 34.3937 91.8143 34.6719 91.8143 34.8972V37.0172C91.8143 37.9447 92.0817 38.7397 92.67 39.3624C93.2583 39.9984 94.007 40.3164 94.9162 40.3164C95.9858 40.3164 96.8282 39.9189 97.4298 39.0974C98.0181 38.2759 98.3257 37.1894 98.3257 35.8512L98.3123 35.8379ZM117.713 37.2954C117.713 38.7927 117.178 40.0117 116.135 40.9657C114.972 41.986 113.354 42.5027 111.282 42.5027C109.37 42.5027 107.832 42.145 106.669 41.403L107.337 39.0444C108.581 39.7864 109.958 40.1574 111.455 40.1574C112.525 40.1574 113.367 39.9189 113.969 39.4419C114.557 38.9649 114.865 38.3157 114.865 37.5207C114.865 36.8052 114.624 36.1957 114.129 35.7054C113.648 35.2152 112.819 34.778 111.683 34.3407C108.567 33.188 107.003 31.5052 107.003 29.3057C107.003 27.8482 107.538 26.6557 108.648 25.7282C109.717 24.8007 111.188 24.3369 113.006 24.3369C114.637 24.3369 115.975 24.602 117.058 25.1717L116.322 27.4904C115.306 26.9605 114.183 26.6954 112.913 26.6954C111.91 26.6954 111.121 26.9207 110.56 27.4109C110.065 27.8614 109.838 28.3915 109.838 29.0275C109.838 29.7164 110.105 30.2994 110.64 30.7499C111.121 31.1739 111.977 31.6244 113.234 32.1147C114.771 32.7242 115.908 33.4397 116.616 34.2612C117.338 35.0562 117.686 36.0897 117.686 37.3087L117.713 37.2954ZM127.152 31.6377H123.997V37.8254C123.997 39.3889 124.532 40.1707 125.655 40.1707C126.163 40.1707 126.591 40.1309 126.925 40.0382L127.005 42.1847C126.43 42.3967 125.695 42.5027 124.772 42.5027C123.649 42.5027 122.767 42.1582 122.125 41.4824C121.496 40.82 121.189 39.6539 121.189 38.0374V31.6509H119.317V29.5309H121.189V27.2122L123.997 26.3775V29.5574H127.125V31.6775L127.152 31.6377ZM141.325 35.7849C141.325 37.7327 140.75 39.3359 139.627 40.5947C138.423 41.8799 136.872 42.5292 134.92 42.5292C133.049 42.5292 131.551 41.9064 130.441 40.6742C129.318 39.4419 128.757 37.8917 128.757 35.997C128.757 34.0095 129.318 32.393 130.495 31.1342C131.631 29.8887 133.169 29.2527 135.134 29.2527C137.006 29.2527 138.53 29.8887 139.68 31.1077C140.75 32.3267 141.311 33.8902 141.311 35.7849H141.325ZM138.357 35.8777C138.357 34.6852 138.089 33.6914 137.594 32.8567C137.006 31.8364 136.15 31.3329 135.054 31.3329C133.904 31.3329 133.022 31.8364 132.433 32.8567C131.899 33.6914 131.671 34.7117 131.671 35.9307C131.671 37.0967 131.912 38.1037 132.433 38.9384C133.049 39.9719 133.904 40.4754 135.014 40.4754C136.11 40.4754 136.966 39.9454 137.581 38.9252C138.089 38.0639 138.357 37.0437 138.357 35.8777ZM150.577 32.0087C150.31 31.9557 149.989 31.9292 149.681 31.9292C148.678 31.9292 147.903 32.3267 147.355 33.0554C146.9 33.7179 146.66 34.5659 146.66 35.5729V42.2377H143.812L143.838 33.5324C143.838 32.0749 143.798 30.7499 143.731 29.5309H146.192L146.299 31.9822H146.379C146.686 31.1342 147.154 30.4717 147.809 29.9549C148.438 29.5044 149.12 29.2924 149.868 29.2924C150.136 29.2924 150.35 29.2924 150.564 29.3322V32.0219L150.577 32.0087ZM163.332 35.2814C163.332 35.7849 163.292 36.2089 163.225 36.5667H154.668C154.708 37.8254 155.123 38.7794 155.912 39.4419C156.647 40.0249 157.583 40.3164 158.72 40.3164C159.99 40.3164 161.126 40.1177 162.196 39.7202L162.624 41.7077C161.42 42.2112 159.976 42.4762 158.345 42.4762C156.34 42.4762 154.775 41.8932 153.639 40.7537C152.502 39.5612 151.941 38.0242 151.941 36.0764C151.941 34.1552 152.476 32.5519 153.519 31.2799C154.642 29.9284 156.139 29.2395 158.024 29.2395C159.869 29.2395 161.273 29.9019 162.223 31.2667C162.985 32.3532 163.372 33.6782 163.372 35.2682L163.332 35.2814ZM160.605 34.5527C160.632 33.7179 160.444 32.9892 160.07 32.3797C159.562 31.5847 158.8 31.1872 157.797 31.1872C156.861 31.1872 156.099 31.5847 155.524 32.3532C155.043 32.9627 154.762 33.6782 154.668 34.5527H160.605ZM65.5816 13.7502C65.5816 15.3402 65.1137 16.4929 64.1644 17.2879C63.2819 18.0167 62.0251 18.3744 60.4206 18.3744C59.6184 18.3744 58.9499 18.3214 58.3883 18.2419V9.7752C59.1237 9.6427 59.9259 9.60295 60.795 9.60295C62.3326 9.60295 63.4691 9.9342 64.2713 10.5834C65.127 11.3254 65.5682 12.3854 65.5682 13.7634L65.5816 13.7502ZM64.1109 13.8032C64.1109 12.7962 63.8435 12.0144 63.3086 11.4712C62.7471 10.9412 61.9716 10.6762 60.9287 10.6762C60.4875 10.6762 60.1265 10.6762 59.7922 10.7557V17.2482C59.9661 17.2482 60.2869 17.2747 60.7282 17.2747C61.7978 17.2747 62.6401 16.9699 63.2284 16.3869C63.79 15.7774 64.0841 14.9294 64.0841 13.7899L64.1109 13.8032ZM73.4033 15.1282C73.4033 16.0822 73.1359 16.8772 72.6011 17.4867C71.9994 18.1227 71.2373 18.4407 70.2746 18.4407C69.3387 18.4407 68.6167 18.1359 68.0685 17.5132C67.5337 16.9169 67.2663 16.1484 67.2663 15.2209C67.2663 14.2669 67.5337 13.4984 68.1086 12.8624C68.6702 12.2529 69.4456 11.9349 70.3816 11.9349C71.3175 11.9349 72.0662 12.2397 72.6278 12.8624C73.1626 13.4454 73.43 14.1874 73.43 15.1414L73.4033 15.1282ZM71.9593 15.1679C71.9593 14.5982 71.8256 14.1079 71.5849 13.6839C71.2908 13.1937 70.8763 12.9419 70.3281 12.9419C69.7665 12.9419 69.3387 13.1804 69.0445 13.6707C68.7771 14.0682 68.6702 14.5982 68.6702 15.1812C68.6702 15.7377 68.8039 16.2412 69.0445 16.6387C69.3521 17.1422 69.7665 17.3939 70.3147 17.3939C70.8495 17.3939 71.2506 17.1289 71.5582 16.6387C71.8256 16.2147 71.9593 15.7112 71.9593 15.1414V15.1679ZM83.9258 12.0542L81.9469 18.2817H80.65L79.8478 15.5919C79.6205 14.8897 79.4467 14.2272 79.313 13.5514C79.1793 14.2404 79.0055 14.9162 78.7782 15.5787L77.9225 18.2684H76.6122L74.7671 12.0409H76.2111L76.9331 14.9957C77.1069 15.6979 77.2539 16.3604 77.3743 16.9832C77.508 16.4797 77.6684 15.8172 77.9091 14.9957L78.8049 12.0277H79.9548L80.8105 14.9427C81.011 15.6582 81.1848 16.3472 81.3185 16.9964H81.3453C81.4389 16.3604 81.5859 15.6714 81.7731 14.9427L82.5486 12.0277H83.9124L83.9258 12.0542ZM91.1859 18.2949H89.782V14.7174C89.782 13.6177 89.3541 13.0744 88.5118 13.0744C88.1107 13.0744 87.7631 13.2069 87.4957 13.5117C87.2282 13.8164 87.0945 14.1742 87.0945 14.5717V18.2817H85.704V13.8297C85.704 13.2732 85.704 12.6769 85.6639 12.0409H86.9073L86.9608 13.0082H87.0009C87.1614 12.7167 87.4021 12.4782 87.7229 12.2662C88.1241 12.0012 88.5252 11.8952 89.0065 11.8952C89.5948 11.8952 90.0761 12.0807 90.4772 12.4649C90.9586 12.9287 91.1992 13.6177 91.1992 14.5319V18.2817L91.1859 18.2949ZM95.0633 18.2949H93.646V9.1922H95.0499L95.0633 18.2949ZM103.299 15.1282C103.299 16.0822 103.032 16.8772 102.47 17.4867C101.882 18.1227 101.133 18.4407 100.157 18.4407C99.2482 18.4407 98.5128 18.1359 97.9646 17.5132C97.4298 16.9169 97.1357 16.1484 97.1357 15.2209C97.1357 14.2669 97.4031 13.4984 97.9914 12.8624C98.5529 12.2529 99.3284 11.9349 100.264 11.9349C101.2 11.9349 101.936 12.2397 102.511 12.8624C103.045 13.4454 103.313 14.1874 103.313 15.1414L103.299 15.1282ZM101.829 15.1679C101.829 14.5982 101.722 14.1079 101.468 13.6839C101.16 13.1937 100.746 12.9419 100.198 12.9419C99.6359 12.9419 99.2081 13.1804 98.9139 13.6707C98.6465 14.0682 98.5128 14.5982 98.5128 15.1812C98.5128 15.7377 98.6465 16.2412 98.9139 16.6387C99.2081 17.1422 99.6226 17.3939 100.171 17.3939C100.706 17.3939 101.107 17.1289 101.428 16.6387C101.695 16.2147 101.829 15.7112 101.829 15.1414V15.1679ZM110.078 18.2949H108.821L108.688 17.5794H108.661C108.233 18.1359 107.618 18.4274 106.829 18.4274C106.241 18.4274 105.76 18.2419 105.399 17.8577C105.064 17.5397 104.904 17.1024 104.904 16.5989C104.904 15.8437 105.225 15.2739 105.867 14.8499C106.508 14.4524 107.417 14.2537 108.594 14.2669V14.1344C108.594 13.3129 108.153 12.9022 107.284 12.9022C106.655 12.9022 106.107 13.0612 105.639 13.3659L105.372 12.4384C105.947 12.0939 106.669 11.9084 107.511 11.9084C109.169 11.9084 109.998 12.7697 109.998 14.4922V16.7977C109.998 17.4337 110.025 17.9372 110.092 18.2949H110.078ZM108.607 16.1484V15.2209C107.083 15.1812 106.308 15.5919 106.308 16.4664C106.308 16.7844 106.401 17.0362 106.575 17.1952C106.762 17.3277 107.003 17.4204 107.27 17.4204C107.578 17.4204 107.872 17.3277 108.126 17.1289C108.394 16.9434 108.554 16.6917 108.621 16.4002V16.1352L108.607 16.1484ZM118.034 18.2949H116.79L116.737 17.3012H116.71C116.309 18.0564 115.64 18.4407 114.678 18.4407C113.915 18.4407 113.287 18.1492 112.806 17.5529C112.271 16.9567 112.03 16.2014 112.03 15.2474C112.03 14.2404 112.298 13.4189 112.859 12.7962C113.394 12.2132 114.022 11.9217 114.798 11.9217C115.64 11.9217 116.242 12.1867 116.576 12.7697H116.603V9.1922H118.007V16.6122C118.007 17.2217 118.007 17.7782 118.047 18.2949H118.034ZM116.59 15.6714V14.6114C116.59 14.4392 116.59 14.2934 116.549 14.1874C116.469 13.8562 116.282 13.5647 116.041 13.3394C115.774 13.1009 115.453 12.9949 115.105 12.9949C114.571 12.9949 114.17 13.1937 113.862 13.6044C113.568 14.0019 113.407 14.5319 113.407 15.1944C113.407 15.8039 113.541 16.3074 113.835 16.6917C114.143 17.0892 114.557 17.3144 115.065 17.3144C115.28 17.3208 115.492 17.2759 115.685 17.1837C115.879 17.0914 116.047 16.9545 116.175 16.7844C116.442 16.4797 116.576 16.0954 116.576 15.6449L116.59 15.6714ZM130.027 15.1282C130.027 16.0822 129.759 16.8772 129.198 17.4867C128.61 18.1227 127.861 18.4407 126.885 18.4407C125.949 18.4407 125.227 18.1359 124.679 17.5132C124.144 16.9169 123.85 16.1484 123.85 15.2209C123.85 14.2669 124.117 13.4984 124.705 12.8624C125.267 12.2529 126.042 11.9349 126.978 11.9349C127.914 11.9349 128.663 12.2397 129.225 12.8624C129.759 13.4454 130.027 14.1874 130.027 15.1414V15.1282ZM128.556 15.1679C128.556 14.5982 128.449 14.1079 128.195 13.6839C127.901 13.1937 127.486 12.9419 126.938 12.9419C126.377 12.9419 125.949 13.1804 125.655 13.6707C125.387 14.0682 125.28 14.5982 125.28 15.1812C125.28 15.7377 125.414 16.2412 125.655 16.6387C125.962 17.1422 126.377 17.3939 126.925 17.3939C127.46 17.3939 127.888 17.1289 128.182 16.6387C128.449 16.2147 128.583 15.7112 128.583 15.1414L128.556 15.1679ZM137.554 18.2949H136.164V14.7174C136.164 13.6177 135.736 13.0744 134.894 13.0744C134.452 13.0744 134.118 13.2069 133.864 13.5117C133.597 13.8164 133.463 14.1742 133.463 14.5717V18.2817H132.099V13.8297C132.099 13.2732 132.072 12.6769 132.032 12.0409H133.262L133.329 13.0082H133.369C133.53 12.7167 133.771 12.4782 134.091 12.2662C134.466 12.0012 134.894 11.8952 135.348 11.8952C135.937 11.8952 136.418 12.0807 136.819 12.4649C137.3 12.9287 137.541 13.6177 137.541 14.5319V18.2817L137.554 18.2949ZM146.994 13.0877H145.443V16.1352C145.443 16.9037 145.71 17.2879 146.245 17.2879C146.512 17.2879 146.726 17.2614 146.887 17.2217L146.927 18.2817C146.633 18.3744 146.258 18.4142 145.817 18.4142C145.282 18.4142 144.841 18.2552 144.52 17.9239C144.213 17.5927 144.052 17.0362 144.052 16.2412V13.0877H143.116L143.143 12.0542H144.052V10.9014L145.429 10.5039V12.0277H146.98V13.0612L146.994 13.0877ZM154.401 18.2949H152.997V14.7439C152.997 13.6309 152.596 13.0612 151.74 13.0612C151.072 13.0612 150.631 13.3924 150.403 14.0417C150.336 14.1742 150.323 14.3464 150.323 14.5452V18.2949H148.919V9.1922H150.31V12.9552H150.336C150.778 12.2662 151.406 11.9217 152.208 11.9217C152.81 11.9217 153.278 12.1072 153.679 12.4914C154.147 12.9552 154.374 13.6574 154.374 14.5849V18.2949H154.401ZM162.049 14.8764C162.049 15.1414 162.049 15.3402 162.009 15.5124H157.81C157.81 16.1219 158.024 16.5989 158.412 16.9169C158.773 17.1819 159.214 17.3409 159.789 17.3409C160.418 17.3409 160.993 17.2482 161.501 17.0494L161.715 18.0167C161.126 18.2817 160.418 18.4142 159.602 18.4142C158.626 18.4142 157.864 18.1227 157.302 17.5529C156.741 16.9832 156.473 16.2279 156.473 15.2474C156.473 14.3199 156.741 13.5249 157.249 12.9022C157.784 12.2397 158.519 11.8952 159.455 11.8952C160.351 11.8952 161.059 12.2529 161.514 12.9154C161.875 13.4454 162.049 14.1079 162.049 14.8764ZM160.712 14.5187C160.739 14.1212 160.645 13.7502 160.444 13.4587C160.204 13.0612 159.843 12.8757 159.335 12.8757C158.88 12.8757 158.506 13.0612 158.225 13.4454C157.984 13.7369 157.851 14.1079 157.824 14.5054H160.725L160.712 14.5187Z" fill="white"/>
<path d="M174.082 52.175C176.85 52.175 179.163 49.9225 179.163 47.2328V6.76725C179.163 4.0775 176.85 1.825 174.082 1.825H6.32419C5.66926 1.825 5.02076 1.95284 4.41569 2.20121C3.81062 2.44958 3.26084 2.81362 2.79774 3.27255C1.86247 4.1994 1.33704 5.45648 1.33704 6.76725V47.2328C1.33704 49.949 3.58326 52.175 6.32419 52.175H174.082ZM174.082 53.5H6.32419C2.84789 53.5 0 50.6778 0 47.2328V6.76725C0 3.32225 2.83452 0.5 6.32419 0.5H174.082C177.559 0.5 180.5 3.309 180.5 6.76725V47.2328C180.5 50.6778 177.559 53.5 174.082 53.5Z" fill="#A6A6A6"/>
<path d="M354.315 0.5H187.185C183.493 0.5 180.5 3.46611 180.5 7.125V46.875C180.5 50.5339 183.493 53.5 187.185 53.5H354.315C358.007 53.5 361 50.5339 361 46.875V7.125C361 3.46611 358.007 0.5 354.315 0.5Z" fill="black"/>
<path d="M243.902 14.0679C243.942 15.0484 243.581 16.0024 242.899 16.7179C242.137 17.5129 241.068 17.9369 239.958 17.9104C238.26 17.8839 236.749 16.8504 236.081 15.3134C235.452 13.7632 235.813 11.9744 237.017 10.7819C237.779 9.98692 238.848 9.56292 239.958 9.58942C240.52 9.58942 241.081 9.69542 241.603 9.92067C242.084 10.1327 242.512 10.4507 242.859 10.8217L242.151 11.5239C241.616 10.9012 240.814 10.5567 239.971 10.5964C239.129 10.5964 238.313 10.9277 237.725 11.5239C237.123 12.1334 236.816 12.9417 236.843 13.7764C236.843 15.0352 237.578 16.1879 238.741 16.6914C239.918 17.1949 241.282 16.9564 242.191 16.0687C242.592 15.6314 242.859 15.0484 242.859 14.4522H239.958V13.5247H243.835C243.889 13.7102 243.902 13.9222 243.902 14.1077V14.0679ZM250.026 10.7554H246.416V13.2729H249.705V14.2269H246.416V16.7444H250.026V17.7249H245.346V9.77492H250.026V10.7554ZM254.411 17.7249H253.382V10.7554H251.149V9.77492H256.711V10.7554H254.411V17.7249ZM260.642 17.7249V9.77492H261.671V17.7249H260.642ZM266.244 17.7249H265.215V10.7554H262.968V9.77492H268.477V10.7554H266.244V17.7249ZM278.906 16.6914C277.301 18.2814 274.667 18.2814 273.023 16.6914C272.269 15.8915 271.85 14.8378 271.85 13.7433C271.85 12.6488 272.269 11.5951 273.023 10.7952C273.825 10.0002 274.868 9.57617 275.964 9.57617C277.088 9.57617 278.144 10.0134 278.906 10.7952C279.678 11.5859 280.109 12.6431 280.109 13.7433C280.109 14.8435 279.678 15.9007 278.906 16.6914ZM273.798 16.0289C275.002 17.2214 276.954 17.2214 278.157 16.0289C279.36 14.7304 279.36 12.7694 278.157 11.4709C276.954 10.2784 275.002 10.2784 273.798 11.4709C272.595 12.7694 272.595 14.7304 273.798 16.0289ZM281.553 17.7249V9.77492H282.81L286.714 15.9627V9.77492H287.744V17.7249H286.674L282.609 11.2324V17.7249H281.553Z" fill="white" stroke="white" stroke-width="0.2"/>
<path d="M271.606 29.3188C268.477 29.3188 265.936 31.8628 265.95 34.9633C265.957 36.4592 266.562 37.8915 267.631 38.9468C268.701 40.0021 270.149 40.5945 271.659 40.5945C274.788 40.5945 277.328 38.077 277.328 34.9633C277.368 33.4528 276.766 32.0085 275.697 30.9485C274.627 29.8885 273.156 29.3055 271.632 29.332L271.606 29.3188ZM271.606 38.3685C270.188 38.4613 268.865 37.706 268.263 36.434C267.648 35.162 267.862 33.6515 268.838 32.6313C269.801 31.5978 271.298 31.2665 272.622 31.77C273.959 32.3 274.814 33.5455 274.814 34.95C274.855 35.8245 274.547 36.6725 273.932 37.335C273.33 37.971 272.488 38.342 271.606 38.3685ZM259.171 29.3188C256.016 29.3188 253.489 31.8363 253.489 34.9633C253.489 36.455 254.087 37.8857 255.151 38.9405C256.215 39.9953 257.659 40.5879 259.164 40.5879C260.67 40.5879 262.113 39.9953 263.178 38.9405C264.242 37.8857 264.84 36.455 264.84 34.9633C264.84 33.4528 264.252 32.0085 263.182 30.9485C262.113 29.8885 260.642 29.3055 259.118 29.332L259.171 29.3188ZM259.171 38.3685C257.74 38.4745 256.417 37.706 255.802 36.4473C255.187 35.1753 255.401 33.6648 256.377 32.6313C256.849 32.131 257.462 31.7818 258.136 31.6284C258.81 31.475 259.515 31.5243 260.16 31.77C261.498 32.3 262.353 33.5455 262.353 34.95C262.393 35.8245 262.086 36.6725 261.471 37.335C260.869 37.971 260.027 38.342 259.144 38.3685H259.171ZM244.33 31.0545V33.4395H250.106C250.012 34.5658 249.544 35.6258 248.769 36.4473C247.606 37.6398 245.988 38.2625 244.317 38.1963C242.637 38.1623 241.038 37.4773 239.863 36.2883C238.687 35.0992 238.028 33.5009 238.028 31.8363C238.028 30.1716 238.687 28.5733 239.863 27.3843C241.038 26.1952 242.637 25.5103 244.317 25.4763C245.948 25.4498 247.525 26.0593 248.689 27.1988L250.387 25.5028C249.593 24.7133 248.649 24.0879 247.609 23.6625C246.569 23.2372 245.455 23.0205 244.33 23.025C241.094 22.8925 238.046 24.5355 236.388 27.3048C235.574 28.657 235.145 30.2022 235.145 31.7767C235.145 33.3511 235.574 34.8963 236.388 36.2485C237.198 37.6061 238.365 38.7208 239.763 39.4743C241.161 40.2279 242.74 40.5921 244.33 40.5283C246.643 40.6608 248.876 39.7333 250.48 38.0903C251.894 36.5722 252.648 34.5635 252.579 32.4988C252.579 31.9953 252.553 31.4918 252.446 31.0015L244.343 31.081L244.33 31.0545ZM304.898 32.9095C304.556 31.8921 303.908 31.0032 303.04 30.3633C302.171 29.7234 301.126 29.3634 300.044 29.332C298.574 29.332 297.17 29.915 296.167 30.9883C295.137 32.0483 294.616 33.5058 294.696 34.9633C294.696 36.4605 295.258 37.9048 296.327 38.9648C297.397 40.0248 298.841 40.621 300.338 40.5945C302.25 40.5945 304.029 39.667 305.085 38.1035L303.146 36.7785C302.558 37.7458 301.502 38.342 300.338 38.342C299.162 38.3818 298.065 37.706 297.598 36.6195L305.219 33.519L304.924 32.936L304.898 32.9095ZM297.143 34.791C297.103 33.9695 297.384 33.148 297.945 32.5385C298.507 31.9158 299.282 31.5448 300.125 31.505C301.007 31.452 301.836 31.9025 302.237 32.6975L297.156 34.791H297.143ZM291.006 40.25H293.493V23.6875H290.993V40.25H291.006ZM286.901 30.5775H286.808C286.046 29.7295 284.963 29.2525 283.813 29.2525C280.778 29.385 278.398 31.876 278.398 34.8838C278.398 37.9048 280.804 40.3825 283.826 40.5283C284.976 40.5548 286.072 40.0778 286.821 39.2033H286.901V40.0248C286.901 42.1845 285.738 43.3373 283.866 43.3373C283.243 43.323 282.638 43.1268 282.126 42.7733C281.615 42.4197 281.22 41.9246 280.992 41.3498L278.812 42.2375C279.229 43.2208 279.93 44.06 280.827 44.6494C281.724 45.2389 282.777 45.5522 283.853 45.55C286.768 45.55 289.201 43.8275 289.201 39.6803V29.65H286.888V30.5775H286.901ZM284.04 38.3685C282.248 38.2095 280.885 36.7255 280.885 34.95C280.885 33.1745 282.248 31.6905 284.04 31.5315C284.909 31.5713 285.711 31.9688 286.286 32.5915C286.874 33.254 287.155 34.0888 287.088 34.95C287.169 35.8113 286.874 36.6725 286.286 37.3085C285.725 37.971 284.909 38.342 284.04 38.3685ZM316.61 23.6875H310.647V40.25H313.147V33.9695H316.65C318.589 34.102 320.447 33.1745 321.464 31.505C322.48 29.862 322.48 27.795 321.464 26.152C320.967 25.343 320.255 24.6852 319.406 24.2505C318.557 23.8157 317.604 23.621 316.65 23.6875H316.61ZM316.61 31.6375H313.134V25.993H316.677C318.255 25.993 319.552 27.265 319.552 28.8418C319.552 30.392 318.255 31.664 316.677 31.664L316.624 31.6243L316.61 31.6375ZM332.04 29.2525C330.168 29.1465 328.43 30.1403 327.587 31.77L329.82 32.6975C330.261 31.876 331.157 31.399 332.093 31.4785C332.735 31.399 333.377 31.5845 333.885 32.0085C334.393 32.406 334.714 32.9758 334.781 33.5985V33.784C333.978 33.36 333.082 33.148 332.173 33.148C329.767 33.148 327.36 34.473 327.36 36.858C327.413 37.918 327.895 38.872 328.657 39.561C329.419 40.25 330.449 40.5945 331.491 40.515C332.775 40.6078 334.005 39.985 334.7 38.925H334.781V40.25H337.187V33.89C337.187 30.975 334.968 29.2923 332.106 29.2923L332.053 29.2525H332.04ZM331.732 38.3288C330.93 38.3288 329.793 37.9313 329.793 36.9243C329.793 35.5993 331.211 35.1488 332.467 35.1488C333.27 35.1488 334.045 35.321 334.74 35.7053C334.656 36.4246 334.311 37.0893 333.771 37.5765C333.23 38.0636 332.53 38.3403 331.799 38.3553L331.745 38.3155L331.732 38.3288ZM345.958 29.65L343.097 36.8315H343.017L340.035 29.65H337.361L341.813 39.6935L339.273 45.2585H341.88L348.726 29.65H345.945H345.958ZM323.496 40.25H325.983V23.6875H323.483V40.25H323.496Z" fill="white"/>
<path d="M194.459 10.5038C194.017 11.0338 193.79 11.736 193.87 12.425V41.575C193.83 42.2375 194.044 42.9 194.485 43.43L194.579 43.5228L211.118 27.1987V26.8013L194.539 10.4375L194.459 10.5303V10.5038Z" fill="url(#paint0_linear_33_225)"/>
<path d="M216.6 32.6577L211.078 27.1855V26.788L216.6 21.3555L216.734 21.4085L223.285 25.092C225.157 26.152 225.157 27.8745 223.285 28.9345L216.734 32.6047L216.6 32.6577Z" fill="url(#paint1_linear_33_225)"/>
<path d="M216.734 32.5915L211.118 27L194.445 43.4963C195.248 44.1853 196.397 44.2117 197.226 43.5757L216.747 32.6047" fill="url(#paint2_linear_33_225)"/>
<path d="M216.734 21.4083L197.213 10.4108C196.812 10.1061 196.317 9.94867 195.812 9.96559C195.308 9.98251 194.824 10.1727 194.445 10.5036L211.118 26.9998L216.734 21.4083Z" fill="#00F076"/>
<path d="M354.582 52.175C357.35 52.175 359.663 49.9225 359.663 47.2328V6.76725C359.663 4.0775 357.35 1.825 354.582 1.825H186.824C185.502 1.825 184.233 2.3457 183.298 3.27255C182.362 4.1994 181.837 5.45648 181.837 6.76725V47.2328C181.837 49.949 184.083 52.175 186.824 52.175H354.582ZM354.582 53.5H186.824C183.348 53.5 180.5 50.6778 180.5 47.2328V6.76725C180.5 3.32225 183.335 0.5 186.824 0.5H354.582C358.059 0.5 361 3.309 361 6.76725V47.2328C361 50.6778 358.059 53.5 354.582 53.5Z" fill="#A6A6A6"/>
</g>
<defs>
<linearGradient id="paint0_linear_33_225" x1="1057.04" y1="10.4375" x2="1057.04" y2="3318.96" gradientUnits="userSpaceOnUse">
<stop offset="0.03938" stop-color="#00C3FF"/>
<stop offset="0.97744" stop-color="#00E1FF"/>
</linearGradient>
<linearGradient id="paint1_linear_33_225" x1="1310.13" y1="586.468" x2="-1922.83" y2="586.468" gradientUnits="userSpaceOnUse">
<stop stop-color="#FDDE31"/>
<stop offset="0.4" stop-color="#FABC31"/>
<stop offset="0.77" stop-color="#F8A431"/>
<stop offset="1" stop-color="#F79B31"/>
</linearGradient>
<linearGradient id="paint2_linear_33_225" x1="2115.77" y1="330.421" x2="17.2373" y2="3896.87" gradientUnits="userSpaceOnUse">
<stop stop-color="#FF3A44"/>
<stop offset="1" stop-color="#C4206D"/>
</linearGradient>
<clipPath id="clip0_33_225">
<rect width="361" height="53" fill="white" transform="translate(0 0.5)"/>
</clipPath>
</defs>
</svg>
