<svg width="197" height="196" viewBox="0 0 197 196" fill="none" xmlns="http://www.w3.org/2000/svg">
<circle cx="97.5" cy="98" r="97.5" fill="#32B638" fill-opacity="0.12"/>
<g clip-path="url(#clip0_245_1089)">
<path d="M98.6895 18.7812C83.0215 18.7813 67.7054 23.4273 54.6779 32.132C41.6505 40.8367 31.4968 53.209 25.5009 67.6843C19.505 82.1596 17.9362 98.0879 20.9929 113.455C24.0496 128.822 31.5944 142.937 42.6734 154.016C53.7523 165.095 67.8677 172.64 83.2347 175.697C98.6016 178.753 114.53 177.184 129.005 171.189C143.481 165.193 155.853 155.039 164.557 142.012C173.262 128.984 177.908 113.668 177.908 98C177.886 76.9967 169.533 56.86 154.681 42.0084C139.83 27.1568 119.693 18.8034 98.6895 18.7812Z" fill="white"/>
<path d="M98.6895 18.7812C83.0215 18.7813 67.7054 23.4273 54.6779 32.132C41.6505 40.8367 31.4968 53.209 25.5009 67.6843C19.505 82.1596 17.9362 98.0879 20.9929 113.455C24.0496 128.822 31.5944 142.937 42.6734 154.016C53.7523 165.095 67.8677 172.64 83.2347 175.697C98.6016 178.753 114.53 177.184 129.005 171.189C143.481 165.193 155.853 155.039 164.557 142.012C173.262 128.984 177.908 113.668 177.908 98C177.886 76.9967 169.533 56.86 154.681 42.0084C139.83 27.1568 119.693 18.8034 98.6895 18.7812ZM133.47 84.0301L90.8133 126.686C90.2474 127.253 89.5753 127.702 88.8355 128.009C88.0958 128.316 87.3028 128.474 86.502 128.474C85.7012 128.474 84.9082 128.316 84.1684 128.009C83.4287 127.702 82.7566 127.253 82.1907 126.686L63.9094 108.405C62.766 107.262 62.1236 105.711 62.1236 104.094C62.1236 102.477 62.766 100.926 63.9094 99.7824C65.0528 98.639 66.6037 97.9966 68.2207 97.9966C69.8378 97.9966 71.3886 98.639 72.5321 99.7824L86.502 113.76L124.847 75.4074C125.413 74.8413 126.085 74.3921 126.825 74.0857C127.565 73.7793 128.358 73.6216 129.158 73.6216C129.959 73.6216 130.752 73.7793 131.492 74.0857C132.231 74.3921 132.903 74.8413 133.47 75.4074C134.036 75.9736 134.485 76.6457 134.791 77.3855C135.098 78.1252 135.255 78.9181 135.255 79.7188C135.255 80.5194 135.098 81.3123 134.791 82.052C134.485 82.7918 134.036 83.4639 133.47 84.0301Z" fill="#32B638"/>
</g>
<defs>
<clipPath id="clip0_245_1089">
<rect width="195" height="195" fill="white" transform="translate(1.18945 0.5)"/>
</clipPath>
</defs>
</svg>
